# xmcd
#
# Track frame offsets:
#	150
#	18315
#	33605
#	48087
#	75870
#	84937
#	103545
#	117697
#	135205
#	147017
#
# Disc length: 2048 seconds
#
# Revision: 0
# Processed by: cddbd v1.4PL0 Copyright (c) Steve Scherf et al.
# Submitted via: EasyCDDAExtractor 4.6.0.1
#
DISCID=6d07fe0a
DTITLE=Johnny Cash - At San Quentin
DYEAR=1969
DGENRE=Country
TTITLE0=Wanted Man
TTITLE1=Wreck Of The Old '97
TTITLE2=I Walk The Line
TTITLE3=Darlin' Companion
TTITLE4=Starkville City Jail
TTITLE5=San Quentin
TTITLE6=San Quentin
TTITLE7=A Boy named Sue
TTITLE8=Peace In The Valley
TTITLE9=Folsom Prison Blues
EXTD=
EXTT0=
EXTT1=
EXTT2=
EXTT3=
EXTT4=
EXTT5=
EXTT6=
EXTT7=
EXTT8=
EXTT9=
PLAYORDER=
